<svg width="14" height="35" viewBox="0 0 14 35" fill="none" xmlns="http://www.w3.org/2000/svg">
<path d="M13.4 23.38L8.95 27.83L13.4 32.28C13.96 32.84 13.96 33.76 13.4 34.32C12.84 34.88 11.92 34.88 11.36 34.32L6.90999 29.87L2.45998 34.32C1.89998 34.88 0.98 34.88 0.42 34.32C-0.14 33.76 -0.14 32.84 0.42 32.28L4.86998 27.83L0.42 23.38C-0.14 22.82 -0.14 21.9 0.42 21.34C0.98 20.78 1.89998 20.78 2.45998 21.34L6.90999 25.79L11.36 21.34C11.92 20.78 12.84 20.78 13.4 21.34C13.96 21.9 13.96 22.82 13.4 23.38Z" fill="#CACA0F"/>
<path d="M13.5603 5.36996C13.5603 2.39996 11.1603 -3.05176e-05 8.19031 -3.05176e-05C5.22031 -3.05176e-05 2.82031 2.39996 2.82031 5.36996C2.82031 8.33996 5.22031 10.74 8.19031 10.74C11.1603 10.74 13.5603 8.33996 13.5603 5.36996Z" fill="#CACA0F"/>
</svg>
