<svg width="55" height="54" viewBox="0 0 55 54" fill="none" xmlns="http://www.w3.org/2000/svg">
<path d="M4.69967 2.09466C4.12445 2.09466 3.65234 1.62798 3.65234 1.04733C3.65234 0.472113 4.11903 0 4.69967 0C5.28032 0 5.747 0.466687 5.747 1.04733C5.747 1.62255 5.27489 2.09466 4.69967 2.09466Z" fill="#CACA0F"/>
<path d="M14.5434 2.09466C13.9682 2.09466 13.4961 1.62798 13.4961 1.04733C13.4961 0.472113 13.9628 0 14.5434 0C15.1186 0 15.5907 0.466687 15.5907 1.04733C15.5853 1.62255 15.1186 2.09466 14.5434 2.09466Z" fill="#CACA0F"/>
<path d="M24.3823 2.09466C23.8071 2.09466 23.335 1.62798 23.335 1.04733C23.335 0.472113 23.8016 0 24.3823 0C24.9575 0 25.4296 0.466687 25.4296 1.04733C25.4296 1.62255 24.9629 2.09466 24.3823 2.09466Z" fill="#CACA0F"/>
<path d="M34.2261 2.09466C33.6509 2.09466 33.1787 1.62798 33.1787 1.04733C33.1787 0.472113 33.6454 0 34.2261 0C34.8013 0 35.2734 0.466687 35.2734 1.04733C35.2734 1.62255 34.8013 2.09466 34.2261 2.09466Z" fill="#CACA0F"/>
<path d="M44.064 2.09466C43.4887 2.09466 43.0166 1.62798 43.0166 1.04733C43.0166 0.472113 43.4833 0 44.064 0C44.6392 0 45.1113 0.466687 45.1113 1.04733C45.1113 1.62255 44.6446 2.09466 44.064 2.09466Z" fill="#CACA0F"/>
<path d="M53.9077 2.09466C53.3325 2.09466 52.8604 1.62798 52.8604 1.04733C52.8604 0.472113 53.327 0 53.9077 0C54.4883 0 54.955 0.466687 54.955 1.04733C54.955 1.62255 54.4829 2.09466 53.9077 2.09466Z" fill="#CACA0F"/>
<path d="M4.69967 11.0702C4.12445 11.0702 3.65234 10.6036 3.65234 10.0229C3.65234 9.4477 4.11903 8.97559 4.69967 8.97559C5.28032 8.97559 5.747 9.44227 5.747 10.0229C5.747 10.5981 5.27489 11.0702 4.69967 11.0702Z" fill="#CACA0F"/>
<path d="M14.5434 11.0702C13.9682 11.0702 13.4961 10.6036 13.4961 10.0229C13.4961 9.4477 13.9628 8.97559 14.5434 8.97559C15.1186 8.97559 15.5907 9.44227 15.5907 10.0229C15.5853 10.5981 15.1186 11.0702 14.5434 11.0702Z" fill="#CACA0F"/>
<path d="M24.3823 11.0702C23.8071 11.0702 23.335 10.6036 23.335 10.0229C23.335 9.4477 23.8016 8.97559 24.3823 8.97559C24.9575 8.97559 25.4296 9.44227 25.4296 10.0229C25.4296 10.5981 24.9629 11.0702 24.3823 11.0702Z" fill="#CACA0F"/>
<path d="M34.2261 11.0702C33.6509 11.0702 33.1787 10.6036 33.1787 10.0229C33.1787 9.4477 33.6454 8.97559 34.2261 8.97559C34.8013 8.97559 35.2734 9.44227 35.2734 10.0229C35.2734 10.5981 34.8013 11.0702 34.2261 11.0702Z" fill="#CACA0F"/>
<path d="M44.064 11.0702C43.4887 11.0702 43.0166 10.6036 43.0166 10.0229C43.0166 9.4477 43.4833 8.97559 44.064 8.97559C44.6392 8.97559 45.1113 9.44227 45.1113 10.0229C45.1113 10.5981 44.6446 11.0702 44.064 11.0702Z" fill="#CACA0F"/>
<path d="M53.9077 11.0702C53.3325 11.0702 52.8604 10.6036 52.8604 10.0229C52.8604 9.4477 53.327 8.97559 53.9077 8.97559C54.4883 8.97559 54.955 9.44227 54.955 10.0229C54.955 10.5981 54.4829 11.0702 53.9077 11.0702Z" fill="#CACA0F"/>
<path d="M4.69967 20.0405C4.12445 20.0405 3.65234 19.5738 3.65234 18.9931C3.65234 18.4179 4.11903 17.9458 4.69967 17.9458C5.28032 17.9458 5.747 18.4125 5.747 18.9931C5.747 19.5738 5.27489 20.0405 4.69967 20.0405Z" fill="#CACA0F"/>
<path d="M14.5434 20.0405C13.9682 20.0405 13.4961 19.5738 13.4961 18.9931C13.4961 18.4179 13.9628 17.9458 14.5434 17.9458C15.1186 17.9458 15.5907 18.4125 15.5907 18.9931C15.5853 19.5738 15.1186 20.0405 14.5434 20.0405Z" fill="#CACA0F"/>
<path d="M24.3823 20.0405C23.8071 20.0405 23.335 19.5738 23.335 18.9931C23.335 18.4179 23.8016 17.9458 24.3823 17.9458C24.9575 17.9458 25.4296 18.4125 25.4296 18.9931C25.4296 19.5738 24.9629 20.0405 24.3823 20.0405Z" fill="#CACA0F"/>
<path d="M34.2261 20.0405C33.6509 20.0405 33.1787 19.5738 33.1787 18.9931C33.1787 18.4179 33.6454 17.9458 34.2261 17.9458C34.8013 17.9458 35.2734 18.4125 35.2734 18.9931C35.2734 19.5738 34.8013 20.0405 34.2261 20.0405Z" fill="#CACA0F"/>
<path d="M44.064 20.0405C43.4887 20.0405 43.0166 19.5738 43.0166 18.9931C43.0166 18.4179 43.4833 17.9458 44.064 17.9458C44.6392 17.9458 45.1113 18.4125 45.1113 18.9931C45.1113 19.5738 44.6446 20.0405 44.064 20.0405Z" fill="#CACA0F"/>
<path d="M53.9077 20.0405C53.3325 20.0405 52.8604 19.5738 52.8604 18.9931C52.8604 18.4179 53.327 17.9458 53.9077 17.9458C54.4883 17.9458 54.955 18.4125 54.955 18.9931C54.955 19.5738 54.4829 20.0405 53.9077 20.0405Z" fill="#CACA0F"/>
<path d="M4.69967 29.0161C4.12445 29.0161 3.65234 28.5494 3.65234 27.9687C3.65234 27.3935 4.11903 26.9214 4.69967 26.9214C5.28032 26.9214 5.747 27.3881 5.747 27.9687C5.747 28.5439 5.27489 29.0161 4.69967 29.0161Z" fill="#CACA0F"/>
<path d="M14.5434 29.0161C13.9682 29.0161 13.4961 28.5494 13.4961 27.9687C13.4961 27.3935 13.9628 26.9214 14.5434 26.9214C15.1186 26.9214 15.5907 27.3881 15.5907 27.9687C15.5853 28.5439 15.1186 29.0161 14.5434 29.0161Z" fill="#CACA0F"/>
<path d="M24.3823 29.0161C23.8071 29.0161 23.335 28.5494 23.335 27.9687C23.335 27.3935 23.8016 26.9214 24.3823 26.9214C24.9575 26.9214 25.4296 27.3881 25.4296 27.9687C25.4296 28.5439 24.9629 29.0161 24.3823 29.0161Z" fill="#CACA0F"/>
<path d="M34.2261 29.0161C33.6509 29.0161 33.1787 28.5494 33.1787 27.9687C33.1787 27.3935 33.6454 26.9214 34.2261 26.9214C34.8013 26.9214 35.2734 27.3881 35.2734 27.9687C35.2734 28.5439 34.8013 29.0161 34.2261 29.0161Z" fill="#CACA0F"/>
<path d="M44.064 29.0161C43.4887 29.0161 43.0166 28.5494 43.0166 27.9687C43.0166 27.3935 43.4833 26.9214 44.064 26.9214C44.6392 26.9214 45.1113 27.3881 45.1113 27.9687C45.1113 28.5439 44.6446 29.0161 44.064 29.0161Z" fill="#CACA0F"/>
<path d="M53.9077 29.0161C53.3325 29.0161 52.8604 28.5494 52.8604 27.9687C52.8604 27.3935 53.327 26.9214 53.9077 26.9214C54.4883 26.9214 54.955 27.3881 54.955 27.9687C54.955 28.5439 54.4829 29.0161 53.9077 29.0161Z" fill="#CACA0F"/>
<path d="M4.69967 37.9914C4.12445 37.9914 3.65234 37.5247 3.65234 36.9441C3.65234 36.3688 4.11903 35.8967 4.69967 35.8967C5.28032 35.8967 5.747 36.3634 5.747 36.9441C5.747 37.5193 5.27489 37.9914 4.69967 37.9914Z" fill="#CACA0F"/>
<path d="M14.5434 37.9914C13.9682 37.9914 13.4961 37.5247 13.4961 36.9441C13.4961 36.3688 13.9628 35.8967 14.5434 35.8967C15.1186 35.8967 15.5907 36.3634 15.5907 36.9441C15.5853 37.5193 15.1186 37.9914 14.5434 37.9914Z" fill="#CACA0F"/>
<path d="M24.3823 37.9914C23.8071 37.9914 23.335 37.5247 23.335 36.9441C23.335 36.3688 23.8016 35.8967 24.3823 35.8967C24.9575 35.8967 25.4296 36.3634 25.4296 36.9441C25.4296 37.5193 24.9629 37.9914 24.3823 37.9914Z" fill="#CACA0F"/>
<path d="M34.2261 37.9914C33.6509 37.9914 33.1787 37.5247 33.1787 36.9441C33.1787 36.3688 33.6454 35.8967 34.2261 35.8967C34.8013 35.8967 35.2734 36.3634 35.2734 36.9441C35.2734 37.5193 34.8013 37.9914 34.2261 37.9914Z" fill="#CACA0F"/>
<path d="M44.064 37.9914C43.4887 37.9914 43.0166 37.5247 43.0166 36.9441C43.0166 36.3688 43.4833 35.8967 44.064 35.8967C44.6392 35.8967 45.1113 36.3634 45.1113 36.9441C45.1113 37.5193 44.6446 37.9914 44.064 37.9914Z" fill="#CACA0F"/>
<path d="M53.9077 37.9914C53.3325 37.9914 52.8604 37.5247 52.8604 36.9441C52.8604 36.3688 53.327 35.8967 53.9077 35.8967C54.4883 35.8967 54.955 36.3634 54.955 36.9441C54.955 37.5193 54.4829 37.9914 53.9077 37.9914Z" fill="#CACA0F"/>
<path d="M4.69967 46.9616C4.12445 46.9616 3.65234 46.4949 3.65234 45.9143C3.65234 45.3391 4.11903 44.8669 4.69967 44.8669C5.28032 44.8669 5.747 45.3336 5.747 45.9143C5.747 46.4949 5.27489 46.9616 4.69967 46.9616Z" fill="#CACA0F"/>
<path d="M14.5434 46.9616C13.9682 46.9616 13.4961 46.4949 13.4961 45.9143C13.4961 45.3391 13.9628 44.8669 14.5434 44.8669C15.1186 44.8669 15.5907 45.3336 15.5907 45.9143C15.5853 46.4949 15.1186 46.9616 14.5434 46.9616Z" fill="#CACA0F"/>
<path d="M24.3823 46.9616C23.8071 46.9616 23.335 46.4949 23.335 45.9143C23.335 45.3391 23.8016 44.8669 24.3823 44.8669C24.9575 44.8669 25.4296 45.3336 25.4296 45.9143C25.4296 46.4949 24.9629 46.9616 24.3823 46.9616Z" fill="#CACA0F"/>
<path d="M34.2261 46.9616C33.6509 46.9616 33.1787 46.4949 33.1787 45.9143C33.1787 45.3391 33.6454 44.8669 34.2261 44.8669C34.8013 44.8669 35.2734 45.3336 35.2734 45.9143C35.2734 46.4949 34.8013 46.9616 34.2261 46.9616Z" fill="#CACA0F"/>
<path d="M44.064 46.9616C43.4887 46.9616 43.0166 46.4949 43.0166 45.9143C43.0166 45.3391 43.4833 44.8669 44.064 44.8669C44.6392 44.8669 45.1113 45.3336 45.1113 45.9143C45.1113 46.4949 44.6446 46.9616 44.064 46.9616Z" fill="#CACA0F"/>
<path d="M53.9077 46.9616C53.3325 46.9616 52.8604 46.4949 52.8604 45.9143C52.8604 45.3391 53.327 44.8669 53.9077 44.8669C54.4883 44.8669 54.955 45.3336 54.955 45.9143C54.955 46.4949 54.4829 46.9616 53.9077 46.9616Z" fill="#CACA0F"/>
<path d="M46.1531 54.0001L0 7.84692H46.1531V54.0001Z" fill="#CACA0F"/>
</svg>
