<svg width="104" height="104" viewBox="0 0 104 104" fill="none" xmlns="http://www.w3.org/2000/svg">
<path d="M52 22.5C48.3534 22.5 44.7887 23.5813 41.7567 25.6073C38.7247 27.6332 36.3615 30.5128 34.966 33.8818C33.5705 37.2508 33.2054 40.958 33.9168 44.5345C34.6282 48.111 36.3842 51.3963 38.9627 53.9748C41.5413 56.5533 44.8265 58.3093 48.403 59.0207C51.9796 59.7321 55.6867 59.367 59.0557 57.9715C62.4248 56.576 65.3043 54.2129 67.3302 51.1808C69.3562 48.1488 70.4375 44.5841 70.4375 40.9375C70.4375 36.0476 68.495 31.3579 65.0373 27.9002C61.5796 24.4425 56.8899 22.5 52 22.5Z" fill="white"/>
<path d="M52 0.375C41.7896 0.375 31.8084 3.40275 23.3187 9.07538C14.829 14.748 8.21212 22.8107 4.30474 32.244C0.397368 41.6772 -0.624979 52.0573 1.36698 62.0715C3.35895 72.0858 8.27575 81.2845 15.4956 88.5044C22.7155 95.7243 31.9142 100.641 41.9285 102.633C51.9428 104.625 62.3228 103.603 71.7561 99.6953C81.1893 95.7879 89.252 89.171 94.9246 80.6813C100.597 72.1916 103.625 62.2105 103.625 52C103.609 38.313 98.1653 25.191 88.4872 15.5129C78.809 5.83468 65.687 0.390616 52 0.375ZM81.4705 84.9146C81.397 80.0778 79.4264 75.4635 75.9832 72.0658C72.54 68.6682 67.8998 66.7591 63.0625 66.75H40.9375C36.1002 66.7591 31.46 68.6682 28.0169 72.0658C24.5737 75.4635 22.603 80.0778 22.5295 84.9146C15.8425 78.9436 11.1268 71.0823 9.00685 62.3717C6.88692 53.6611 7.46276 44.512 10.6581 36.1359C13.8535 27.7598 19.5176 20.5518 26.9006 15.4663C34.2835 10.3809 43.037 7.65791 52.0019 7.65791C60.9668 7.65791 69.7202 10.3809 77.1032 15.4663C84.4861 20.5518 90.1502 27.7598 93.3456 36.1359C96.541 44.512 97.1168 53.6611 94.9969 62.3717C92.877 71.0823 88.1576 78.9436 81.4705 84.9146Z" fill="white"/>
</svg>
