<svg width="14" height="35" viewBox="0 0 14 35" fill="none" xmlns="http://www.w3.org/2000/svg">
<path d="M13.4 11.36L8.95 6.90999L13.4 2.45999C13.96 1.89999 13.96 0.98 13.4 0.42C12.84 -0.14 11.92 -0.14 11.36 0.42L6.90999 4.87L2.45998 0.42C1.89998 -0.14 0.98 -0.14 0.42 0.42C-0.14 0.98 -0.14 1.89999 0.42 2.45999L4.86998 6.90999L0.42 11.36C-0.14 11.92 -0.14 12.84 0.42 13.4C0.98 13.96 1.89998 13.96 2.45998 13.4L6.90999 8.95L11.36 13.4C11.92 13.96 12.84 13.96 13.4 13.4C13.96 12.84 13.96 11.92 13.4 11.36Z" fill="#CACA0F"/>
<path d="M13.5603 29.37C13.5603 32.34 11.1603 34.74 8.19031 34.74C5.22031 34.74 2.82031 32.34 2.82031 29.37C2.82031 26.4 5.22031 24 8.19031 24C11.1603 24 13.5603 26.4 13.5603 29.37Z" fill="#CACA0F"/>
</svg>
